<svg width="296" height="276" viewBox="0 0 296 276" fill="none" xmlns="http://www.w3.org/2000/svg">
<g filter="url(#filter0_f_0_4)">
<ellipse cx="182.356" cy="114.185" rx="44.0678" ry="44.185" fill="url(#paint0_radial_0_4)"/>
</g>
<path d="M226.424 114.185C226.424 104.245 223.081 94.5948 216.935 86.7948C210.79 78.9948 202.2 73.5005 192.556 71.1998C182.911 68.8991 172.774 69.9264 163.784 74.1157C154.793 78.3051 147.474 85.4116 143.01 94.2869C138.545 103.162 137.196 113.288 139.179 123.027C141.163 132.766 146.365 141.55 153.943 147.959C161.521 154.368 171.033 158.028 180.942 158.347C190.85 158.666 200.577 155.626 208.55 149.717L182.356 114.185H226.424Z" fill="url(#paint1_linear_0_4)"/>
<g filter="url(#filter1_d_0_4)">
<path fill-rule="evenodd" clip-rule="evenodd" d="M204.39 217H115.831H112.864V216.934C78.4363 215.389 51 187.097 51 152.422C51 116.757 80.0256 87.8439 115.831 87.8439C144.529 87.8439 168.872 106.418 177.405 132.156C185.02 126.725 194.333 123.532 204.39 123.532C230.132 123.532 251 144.455 251 170.266C251 195.508 231.042 216.075 206.085 216.97V217H204.39Z" fill="url(#paint2_radial_0_4)"/>
</g>
<g filter="url(#filter2_i_0_4)">
<path fill-rule="evenodd" clip-rule="evenodd" d="M206.085 216.97C231.042 216.075 251 195.508 251 170.266C251 144.455 230.132 123.532 204.39 123.532C194.333 123.532 185.02 126.725 177.405 132.156C168.872 106.418 144.529 87.8439 115.831 87.8439C80.0256 87.8439 51 116.757 51 152.422C51 187.097 78.4363 215.389 112.864 216.934V217H115.831H204.39H206.085V216.97Z" fill="url(#paint3_radial_0_4)"/>
</g>
<defs>
<filter id="filter0_f_0_4" x="69.1793" y="0.891136" width="226.353" height="226.588" filterUnits="userSpaceOnUse" color-interpolation-filters="sRGB">
<feFlood flood-opacity="0" result="BackgroundImageFix"/>
<feBlend mode="normal" in="SourceGraphic" in2="BackgroundImageFix" result="shape"/>
<feGaussianBlur stdDeviation="34.5544" result="effect1_foregroundBlur_0_4"/>
</filter>
<filter id="filter1_d_0_4" x="0" y="78.8439" width="268" height="197.156" filterUnits="userSpaceOnUse" color-interpolation-filters="sRGB">
<feFlood flood-opacity="0" result="BackgroundImageFix"/>
<feColorMatrix in="SourceAlpha" type="matrix" values="0 0 0 0 0 0 0 0 0 0 0 0 0 0 0 0 0 0 127 0" result="hardAlpha"/>
<feOffset dx="-17" dy="25"/>
<feGaussianBlur stdDeviation="17"/>
<feColorMatrix type="matrix" values="0 0 0 0 0.606242 0 0 0 0 0.650102 0 0 0 0 0.701936 0 0 0 0.2 0"/>
<feBlend mode="normal" in2="BackgroundImageFix" result="effect1_dropShadow_0_4"/>
<feBlend mode="normal" in="SourceGraphic" in2="effect1_dropShadow_0_4" result="shape"/>
</filter>
<filter id="filter2_i_0_4" x="51" y="87.8439" width="200" height="133.156" filterUnits="userSpaceOnUse" color-interpolation-filters="sRGB">
<feFlood flood-opacity="0" result="BackgroundImageFix"/>
<feBlend mode="normal" in="SourceGraphic" in2="BackgroundImageFix" result="shape"/>
<feColorMatrix in="SourceAlpha" type="matrix" values="0 0 0 0 0 0 0 0 0 0 0 0 0 0 0 0 0 0 127 0" result="hardAlpha"/>
<feOffset dy="4"/>
<feGaussianBlur stdDeviation="2.5"/>
<feComposite in2="hardAlpha" operator="arithmetic" k2="-1" k3="1"/>
<feColorMatrix type="matrix" values="0 0 0 0 1 0 0 0 0 1 0 0 0 0 1 0 0 0 1 0"/>
<feBlend mode="normal" in2="shape" result="effect1_innerShadow_0_4"/>
</filter>
<radialGradient id="paint0_radial_0_4" cx="0" cy="0" r="1" gradientUnits="userSpaceOnUse" gradientTransform="translate(200.744 70) rotate(112.061) scale(67.0834 117.912)">
<stop stop-color="#FFC100"/>
<stop offset="1" stop-color="#FF3100"/>
</radialGradient>
<linearGradient id="paint1_linear_0_4" x1="157.979" y1="73.5618" x2="157.979" y2="122.445" gradientUnits="userSpaceOnUse">
<stop stop-color="#FFC100"/>
<stop offset="1" stop-color="#FF8E00"/>
</linearGradient>
<radialGradient id="paint2_radial_0_4" cx="0" cy="0" r="1" gradientUnits="userSpaceOnUse" gradientTransform="translate(156.685 115.75) rotate(90) scale(151.452 234.525)">
<stop stop-color="white"/>
<stop offset="1" stop-color="#DEE5EE"/>
</radialGradient>
<radialGradient id="paint3_radial_0_4" cx="0" cy="0" r="1" gradientUnits="userSpaceOnUse" gradientTransform="translate(156.685 115.75) rotate(90) scale(151.452 234.525)">
<stop stop-color="white" stop-opacity="0.103027"/>
<stop offset="1" stop-color="#DEE5EE"/>
</radialGradient>
</defs>
</svg>
